<?xml version="1.0" encoding="UTF-8"?><svg id="Layer_1" xmlns="http://www.w3.org/2000/svg" viewBox="0 0 274.07 61.741"><path d="M9.216,31.93c-4.581,0-6.244-2.19-6.244-6.203v-3.528c0-4.013,1.663-6.203,6.244-6.203h24.245v-2.108c0-3.284-1.42-4.906-4.379-4.906H3.661v-4.5h26.434c5.635,0,8.23,2.96,8.23,8.919v18.528H9.216ZM33.46,19.766H10.959c-2.271,0-3.122,1.136-3.122,3.244v1.54c0,2.148.85,3.284,3.122,3.284h22.501v-8.069Z" fill="#fff"/><path d="M78.908,31.93c-.446-.325-.69-.811-.69-1.785v-5.068c0-2.351-1.54-3.243-3.81-3.243h-22.016v10.096h-4.905V4.482h28.948c4.581,0,6.244,2.189,6.244,6.203v3.405c0,4.663-2.555,5.393-4.217,5.596,1.825.162,4.623,1.054,4.623,5.392v5.068c0,.973.283,1.46.689,1.785h-4.865ZM77.814,11.82c0-2.108-.852-3.243-3.122-3.243h-22.299v9.487h21.894c2.108,0,3.527-.771,3.527-3.203v-3.041Z" fill="#fff"/><path d="M99.665,31.93c-5.676,0-8.311-2.96-8.311-8.919v-9.609c0-5.96,2.635-8.919,8.311-8.919h24.651v4.5h-23.636c-3.041,0-4.419,1.622-4.419,4.906v8.636c0,3.243,1.378,4.905,4.419,4.905h23.636v4.501h-24.651Z" fill="#fff"/><path d="M139.398,31.93c-4.581,0-6.244-2.19-6.244-6.203v-3.528c0-4.013,1.663-6.203,6.244-6.203h24.245v-2.108c0-3.284-1.418-4.906-4.378-4.906h-25.421v-4.5h26.434c5.636,0,8.231,2.96,8.231,8.919v18.528h-29.111ZM163.643,19.766h-22.501c-2.27,0-3.122,1.136-3.122,3.244v1.54c0,2.148.852,3.284,3.122,3.284h22.501v-8.069Z" fill="#fff"/><path d="M177.67,31.93V4.482h26.15c6.163,0,9.244,3.81,9.244,9.811v8.068c0,5.839-3.04,9.569-9.244,9.569h-26.15ZM208.158,15.875c0-4.055-1.135-6.893-5.27-6.893h-20.313v18.447h18.893c4.419,0,6.689-1.622,6.689-5.473v-6.081Z" fill="#fff"/><path d="M222.023,31.93V4.482h4.905v27.448h-4.905Z" fill="#fff"/><path d="M242.255,31.93c-4.581,0-6.244-2.19-6.244-6.203v-3.528c0-4.013,1.663-6.203,6.244-6.203h24.245v-2.108c0-3.284-1.418-4.906-4.378-4.906h-25.421v-4.5h26.434c5.636,0,8.231,2.96,8.231,8.919v18.528h-29.111ZM266.499,19.766h-22.501c-2.27,0-3.122,1.136-3.122,3.244v1.54c0,2.148.852,3.284,3.122,3.284h22.501v-8.069Z" fill="#fff"/><path d="M3.899,57.864v-11.861h12.719c2.014,0,2.749.947,2.749,2.681v.752c0,1.963-.962,2.278-1.682,2.366.736.07,1.858.437,1.858,2.278v1.103c0,1.734-.718,2.681-2.733,2.681H3.899ZM16.635,49.332c0-.683-.281-1.033-1.016-1.033H6.65v2.523h8.847c.683,0,1.138-.245,1.138-1.016v-.474ZM16.81,53.869c0-.718-.49-.998-1.174-.998H6.65v2.698h9.144c.736,0,1.016-.368,1.016-1.069v-.631Z" fill="#fff" stroke="#fff" stroke-miterlimit="10"/><path d="M27.181,57.864c-2.452,0-3.626-1.297-3.626-3.855v-8.006h2.786v7.726c0,1.05.473,1.594,1.436,1.594h8.199v-9.32h2.715v11.861h-11.51Z" fill="#fff" stroke="#fff" stroke-miterlimit="10"/><path d="M44.162,57.864v-11.861h2.75v11.861h-2.75Z" fill="#fff" stroke="#fff" stroke-miterlimit="10"/><path d="M54.662,57.864c-2.47,0-3.626-1.279-3.626-3.855v-8.006h2.75v7.726c0,1.05.473,1.594,1.453,1.594h8.865v2.54h-9.442Z" fill="#fff" stroke="#fff" stroke-miterlimit="10"/><path d="M67.749,57.864v-11.861h11.598c2.627,0,3.958,1.594,3.958,4.17v3.591c0,2.523-1.313,4.1-3.958,4.1h-11.598ZM80.556,50.734c0-1.314-.403-2.207-1.753-2.207h-8.304v6.797h7.884c1.436,0,2.173-.525,2.173-1.787v-2.803Z" fill="#fff" stroke="#fff" stroke-miterlimit="10"/><path d="M87.37,57.864v-11.861h2.75v11.861h-2.75Z" fill="#fff" stroke="#fff" stroke-miterlimit="10"/><path d="M106.804,57.864v-7.726c0-1.069-.473-1.611-1.453-1.611h-8.287v9.337h-2.75v-11.861h11.615c2.471,0,3.626,1.296,3.626,3.855v8.006h-2.75Z" fill="#fff" stroke="#fff" stroke-miterlimit="10"/><path d="M116.352,57.864c-2.032,0-2.786-.947-2.786-3.136v-4.87c0-2.576,1.157-3.855,3.645-3.855h11.51v2.523h-10.914c-1.016,0-1.472.525-1.472,1.611v4.222c0,.823.28,1.209,1.016,1.209h8.917v-4.17h2.732v6.465h-12.648Z" fill="#fff" stroke="#fff" stroke-miterlimit="10"/><path d="M156.445,57.864c-.192-.14-.297-.351-.297-.771v-2.208c0-.771-.491-1.069-1.245-1.069h-8.917v4.048h-2.75v-11.861h12.719c2.014,0,2.75.947,2.75,2.681v1.524c0,1.961-.964,2.26-1.682,2.365.735.07,1.856.456,1.856,2.278v2.242c0,.42.123.63.315.771h-2.75ZM155.972,49.332c0-.683-.28-1.033-1.016-1.033h-8.97v3.328h8.847c.683,0,1.138-.263,1.138-1.033v-1.262Z" fill="#fff" stroke="#fff" stroke-miterlimit="10"/><path d="M166.292,57.864c-2.488,0-3.645-1.279-3.645-3.855v-5.325c0-1.734.754-2.681,2.786-2.681h10.021c2.032,0,2.75.947,2.75,2.681v1.663c0,1.734-.718,2.681-2.75,2.681h-10.038v.701c0,1.05.456,1.594,1.472,1.594h11.019v2.54h-11.615ZM175.471,49.332c0-.683-.28-1.033-1.016-1.033h-8.023c-.736,0-1.016.351-1.016,1.033v1.7h9.039c.736,0,1.016-.386,1.016-1.052v-.649Z" fill="#fff" stroke="#fff" stroke-miterlimit="10"/><path d="M185.105,54.921v2.943h-2.75v-11.861h12.421c2.032,0,2.75.947,2.75,2.681v3.328c0,2.049-.718,2.908-2.75,2.908h-9.671ZM194.776,49.332c0-.683-.281-1.033-.999-1.033h-8.672v4.38h8.672c.718,0,.999-.351.999-1.121v-2.225Z" fill="#fff" stroke="#fff" stroke-miterlimit="10"/><path d="M204.744,57.864c-2.488,0-3.645-1.279-3.645-3.855v-4.151c0-2.576,1.157-3.855,3.645-3.855h8.287c2.487,0,3.626,1.279,3.626,3.855v4.151c0,2.576-1.14,3.855-3.626,3.855h-8.287ZM213.906,50.138c0-1.086-.456-1.611-1.472-1.611h-7.095c-1.016,0-1.472.525-1.472,1.611v3.592c0,1.05.456,1.594,1.472,1.594h7.095c1.016,0,1.472-.544,1.472-1.594v-3.592Z" fill="#fff" stroke="#fff" stroke-miterlimit="10"/><path d="M233.946,57.864c-.192-.14-.297-.351-.297-.771v-2.208c0-.771-.491-1.069-1.245-1.069h-8.917v4.048h-2.75v-11.861h12.719c2.014,0,2.75.947,2.75,2.681v1.524c0,1.961-.964,2.26-1.682,2.365.735.07,1.856.456,1.856,2.278v2.242c0,.42.123.63.315.771h-2.75ZM233.473,49.332c0-.683-.28-1.033-1.016-1.033h-8.97v3.328h8.847c.683,0,1.138-.263,1.138-1.033v-1.262Z" fill="#fff" stroke="#fff" stroke-miterlimit="10"/><path d="M244.695,57.864v-9.337h-6.167v-2.523h15.101v2.523h-6.201v9.337h-2.733Z" fill="#fff" stroke="#fff" stroke-miterlimit="10"/><path d="M256.834,57.864v-2.295h11.282c.718,0,1.016-.368,1.016-1.069v-.561c0-.649-.28-1.052-.998-1.052h-8.549c-2.015,0-2.75-.964-2.75-2.698v-1.506c0-1.734.735-2.681,2.75-2.681h12v2.295h-11.002c-.735,0-1.016.351-1.016,1.033v.474c0,.666.281,1.05,1.016,1.05h8.532c2.032,0,2.768.964,2.768,2.698v1.629c0,1.734-.735,2.681-2.768,2.681h-12.281Z" fill="#fff" stroke="#fff" stroke-miterlimit="10"/><path d="M33.853,41.248h0l-.17-.17c-.827-.827-1.649-1.229-2.478-1.244-.012,0-.023-.003-.034-.003-.127,0-.255.017-.383.035-.12.014-.241.027-.361.058-.028.008-.055.021-.083.029-.415.121-.829.34-1.243.666-.14.106-.281.24-.422.367-.039.037-.077.062-.116.101l-.016.016c-.051.049-.102.085-.154.136,0,0,.009.004.012.005l-6.519,6.519,1.796,1.796,6.268-6.268c.781-.781,1.513-.784,2.344-.009l6.268,6.268,1.796-1.796-6.506-6.506Z" fill="#fff" stroke="#fff" stroke-miterlimit="10"/><path d="M41.281,41.828l-8.045,7.997c-.28.28-.652.434-1.049.434s-.769-.154-1.045-.43l-1.842-1.894-1.662,1.661,1.839,1.891c.723.723,1.685,1.121,2.71,1.121s1.987-.398,2.711-1.12l8.044-7.997-1.661-1.662Z" fill="#00b6d3"/></svg>