<?xml version="1.0" encoding="UTF-8"?>
<svg fill="#fff" id="Layer_1" data-name="Layer 1" xmlns="http://www.w3.org/2000/svg" viewBox="0 0 356.77 36.38">
  <g>
    <path d="M100.46,0c.32.04,1.85.6,2.2.8,1.69.93,3,3.15,3.21,5.04.23,2.06.28,7.63-.14,9.56-.29,1.33-1.16,2.93-2.33,3.67l-2.38,1.18c7.82.8,4.85,9.69,5.62,14.82.1.65.58.79.75,1.31h-6.19c-.24,0-.88-.91-.94-1.31-.45-3.03,1.08-8.93-1.3-11.08-.27-.24-2.09-1.11-2.26-1.11h-30.94v13.5h-6.38V0h41.06ZM65.77,18h30.56c.18,0,1.99-.87,2.26-1.11.3-.27.64-.74.76-1.12.33-1,.35-6.89.1-8.01-.16-.74-1.74-2.51-2.37-2.51h-31.31v12.75Z"/>
    <g>
      <path d="M356.77,36.38h-39.94c-.31,0-3.02-.82-3.46-1.04-2.45-1.29-3.3-4.05-3.49-6.63-.22-2.83-.2-8.61,1.51-10.89.57-.76,3.13-2.43,3.94-2.43h35.06v-5.44c0-.73-1.38-2.69-2.06-3.19-.46-.33-2.24-1.12-2.63-1.12h-34.69V0h38.06c.48,0,3.15,1.19,3.69,1.56,1.11.75,2.53,2.46,3.06,3.69.2.46.93,2.91.93,3.19v27.94ZM350.39,20.25h-31.69c-.11,0-1.14.72-1.33.92-1.52,1.66-1.65,6.77-.19,8.47.37.43,2.23,1.48,2.64,1.48h30.56v-10.88Z"/>
      <rect x="291.52" width="6.38" height="36.38"/>
    </g>
    <g>
      <path d="M232.27,36.38V0h37.69c.22,0,2.62.86,3.07,1.05,3.5,1.52,5.78,5.1,6.13,8.87.38,4.15.38,12.37,0,16.52-.44,4.8-3.79,8.53-8.47,9.53-.35.08-2.11.39-2.23.39h-36.19ZM238.64,30.38h28.31c.1,0,1.65-.54,1.95-.67,1.83-.77,3.06-1.91,3.68-3.82,1.03-3.15.72-11.35.09-14.75-.29-1.56-1.44-3.48-2.79-4.33-.45-.28-2.6-1.18-2.94-1.18h-27.75s-.56.52-.56.56v24.19Z"/>
      <g>
        <path d="M220.27,36.38h-39.94c-1.33-.6-2.74-.37-4.08-1.17-.92-.55-2.03-1.85-2.39-2.86-.73-2.02-.71-8.82-.48-11.17.32-3.27,2.59-5.43,5.81-5.81l34.09-.03c.86-.25.69-2.68.61-3.53-.2-2.17-1.01-4.61-3.12-5.51-.29-.12-1.85-.67-1.96-.67h-34.69V0h38.06c.22,0,2.97.96,3.33,1.17,2.14,1.27,4.01,4.47,4.34,6.91.09.7.4,2.95.4,3.35v24.94ZM213.89,20.25h-32.06c-.11,0-1.14.72-1.33.92-1.66,1.81-1.62,8.14.87,9.29.26.12,1.86.66,1.96.66h30s.56-.52.56-.56v-10.31Z"/>
        <path d="M161.39,0v5.62h-32.44c-.1,0-1.67.54-1.96.67-1.25.54-2.05,1.48-2.47,2.78-1,3.07-.93,11.68-.65,15.12.13,1.58.68,3.77,1.87,4.88.38.35,2.12,1.3,2.45,1.3h33.19v6h-34.31c-.65,0-3.05-.75-3.82-1.05-2.77-1.1-4.79-3.75-5.29-6.71-.88-5.3-.71-13.34-.1-18.69.38-3.33.66-5.85,3.58-8.05.67-.5,3.45-1.87,4.13-1.87h35.81Z"/>
      </g>
    </g>
  </g>
  <path d="M47.02,36.38H7.08c-.13,0-2.09-.44-2.46-.54-1.51-.43-3.01-1.66-3.64-3.11C-.1,30.24-.12,24.7.13,21.93c.18-2.01,1.16-4.23,2.82-5.43.46-.33,2.24-1.12,2.63-1.12h35.06c.03-2.68.41-6.83-2.12-8.57-.4-.28-2.63-1.18-2.94-1.18H1.27V0h37.69c.18,0,2.68.86,3.08,1.05,2.01.94,3.45,2.78,4.15,4.85.2.6.84,2.88.84,3.29v27.19ZM40.64,20.25H8.96c-.62,0-2.2,1.77-2.37,2.51-.33,1.49-.26,6.02.77,7.15.25.27,2.45,1.22,2.72,1.22h30.56v-10.88Z"/>
</svg>