<?xml version="1.0" encoding="UTF-8"?><svg id="Layer_1" xmlns="http://www.w3.org/2000/svg" viewBox="0 0 23.718 19.529"><path d="M7.326,18.928c-2.452,0-3.626-1.297-3.626-3.855V7.067h2.786v7.726c0,1.05.473,1.594,1.436,1.594h8.199V7.067h2.715v11.861H7.326Z" fill="#fff" stroke="#fff" stroke-miterlimit="10"/><path d="M13.998,2.312h0l-.17-.17c-.827-.827-1.649-1.229-2.478-1.244-.012,0-.023-.003-.034-.003-.127,0-.255.017-.383.035-.12.014-.241.027-.361.058-.028.008-.055.021-.083.029-.415.121-.829.34-1.243.666-.14.106-.281.24-.422.367-.039.037-.077.062-.116.101l-.016.016c-.051.049-.102.085-.154.136,0,0,.009.004.012.005l-6.519,6.519,1.796,1.796,6.268-6.268c.781-.781,1.513-.784,2.344-.009l6.268,6.268,1.796-1.796-6.506-6.506Z" fill="#fff" stroke="#fff" stroke-miterlimit="10"/><path d="M21.427,2.892l-8.045,7.997c-.28.28-.652.434-1.049.434s-.769-.154-1.045-.43l-1.842-1.894-1.662,1.661,1.839,1.891c.723.723,1.685,1.121,2.71,1.121s1.987-.398,2.711-1.12l8.044-7.997-1.661-1.662Z" fill="#00b6d3"/></svg>