<?xml version="1.0" encoding="UTF-8"?><svg id="Layer_1" xmlns="http://www.w3.org/2000/svg" viewBox="0 0 23.718 19.529"><path d="M3.702,7.068v.09l.09-.09h-.09ZM18.752,7.068l.08.08v-.08h-.08Z" fill="#fff" stroke="#fff" stroke-miterlimit="10"/><path d="M18.832,7.148l-.08-.08-4.75-4.76-.17-.17c-.83-.82-1.65-1.22-2.48-1.24h-.04c-.12,0-.25.01-.38.03-.12.02-.24.03-.36.06-.03.01-.06.02-.08.03-.42.12-.83.34-1.25.67-.14.1-.28.23-.42.36-.04.04-.08.06-.11.1l-.02.02c-.05.05-.09.08-.14.14l-6.52,6.52,1.67,1.67v4.58c0,2.55,1.17,3.85,3.62,3.85h11.51v-8.43l1.67-1.68-1.67-1.67ZM16.122,16.388H7.922c-.96,0-1.44-.54-1.44-1.59v-6.82l3.61-3.62c.79-.78,1.52-.79,2.35-.01l3.68,3.68v8.36Z" fill="#fff" stroke="#fff" stroke-miterlimit="10"/><path d="M21.427,2.892l-8.045,7.997c-.28.28-.652.434-1.049.434s-.769-.154-1.045-.43l-1.842-1.894-1.662,1.661,1.839,1.891c.723.723,1.685,1.121,2.71,1.121s1.987-.398,2.711-1.12l8.044-7.997-1.661-1.662Z" fill="#00b6d3"/></svg>