<?xml version="1.0" encoding="UTF-8"?>
<svg id="Layer_1" data-name="Layer 1" xmlns="http://www.w3.org/2000/svg" viewBox="0 0 228.06 15.48">
  <path d="M11.39,5.11c.1.02,1.17.47,1.26.54.75.63,1.03,4.32-.42,4.45v.23c1.97.19,1.38,4.99-.12,4.99H0V5.11h11.39ZM2.4,9.15h8.03c.73-.3.25-1.9-.24-1.9H2.4v1.9ZM10.79,11.29H2.4v1.9h8.39v-1.9Z" fill="#929497"/>
  <path d="M137.38,11.29c-.07.74-.03,1.51.84,1.66l9.56.03c.69.22.3,1.73.39,2.34h-11.39c-.3,0-1.47-1.13-1.62-1.48-.58-1.36-.67-6.42,0-7.71.35-.67,1.38-.94,2.09-1.02,2.1-.21,6.28-.18,8.41,0,2.48.2,2.99,1.58,2.72,3.9-.08.72-.7,2.28-1.53,2.28h-9.47ZM137.38,9.39h8.03c.68-1.08.76-2.01-.71-2.14-1.06-.1-5.89-.18-6.67.05-.85.24-.64,1.39-.64,2.09Z" fill="#929497"/>
  <path d="M54.19,15.32V5.47s.33-.36.36-.36h10.07c.07,0,1.11.35,1.25.42.6.3,1.34,1.15,1.56,1.78.34.98.31,4.57.08,5.64-.18.85-1.27,2.36-2.17,2.36h-11.15ZM64.13,7.49c-2.12-.34-5.09.25-7.31,0v5.46h7.55c.81,0,.67-3.46.6-4.16-.05-.54-.21-1.2-.84-1.3Z" fill="#929497"/>
  <path d="M227.77,7.25h-9.71c-.4,0-1.04,1.35-.22,1.88,1.01.65,6.66.08,8.38.25,1.85.19,1.98,2.42,1.77,3.91-.09.66-.86,2.04-1.54,2.04h-11.63c.07-.72-.27-1.63.36-2.14h9.83c.5,0,.5-1.9,0-1.9h-8.15c-.12,0-1.29-.55-1.44-.72-.78-.89-.77-3.86,0-4.74.34-.39,1.38-.67,1.91-.72,3.09-.31,6.68.24,9.84,0,.96.14.51,1.37.6,2.14Z" fill="#929497"/>
  <path d="M195.76,5.11c1.98.34,2.02,2.83,1.79,4.38-.09.58-.75,1.14-.69,1.4s.75.65.89,1.27c.23,1.03-.23,2.19.29,3.16-.62-.1-2.46.24-2.77-.22-.45-.66.36-2.48-.46-3.1h-8.03v3.32h-2.64V5.47s.33-.36.36-.36h11.27ZM194.92,9.86c.33-.54.39-2.61-.36-2.61h-7.79v2.61h8.15Z" fill="#929497"/>
  <path d="M170.41,5.17c1.75-.24,5.58-.23,7.37-.06,2.1.19,3.07,1.1,3.25,3.2.12,1.43.22,5.16-.72,6.19-.38.42-1.23.77-1.8.83-2,.21-6.39.19-8.4,0-1.29-.12-2.3-.96-2.5-2.27-.16-1.07-.14-4.57.04-5.63.24-1.36,1.45-2.07,2.76-2.25ZM170.23,12.95h7.79s.36-.33.36-.36v-4.51s-.56-.59-.6-.59h-6.95s-.6.55-.6.59v4.87Z" fill="#929497"/>
  <path d="M129.83,5.11c.15.03,1.18.48,1.31.6.63.53.62,3.21.48,4.03-.1.59-.72.71-.72,1.19,1.61.85.55,3,1.2,4.39l-2.61-.03c-.5-.57.01-3.3-.63-3.3h-8.03v3.32h-2.4V5.11h11.39ZM120.84,9.86h8.03c.6,0,.49-2.61-.24-2.61h-7.79v2.61Z" fill="#929497"/>
  <path d="M106.21,7.49h-9.71c-.25,0-.84.58-.84.83v4.51s.33.36.36.36h7.79c.14-.74-.24-2.82.1-3.34.24-.36,2.22-.41,2.53.13v5.34h-11.87c-.25,0-1-.71-1.14-1.01-.65-1.44-.59-5.79-.06-7.3.48-1.4,1.46-1.77,2.88-1.9,3.05-.28,6.65.12,9.73.11.44.29.15,1.71.22,2.27Z" fill="#929497"/>
  <path d="M154.16,12.95v2.37s-2.64,0-2.64,0V5.47s.33-.36.36-.36h10.79c.58,0,1.61.67,1.86,1.25.28.67.31,4.21.13,4.99-.11.48-1.11,1.59-1.51,1.59h-8.99ZM161.48,7.25c-2.12-.34-5.09.25-7.31,0v3.56h7.55c.73-.77.21-2.16.37-3.17-.02-.12-.52-.38-.61-.39Z" fill="#929497"/>
  <path d="M89.91,15.32h-2.64v-7.24s-.56-.59-.6-.59h-7.31v7.83h-2.64V5.47s.33-.36.36-.36h10.31c.74,0,2.52,1.47,2.52,2.26v7.95Z" fill="#929497"/>
  <path d="M212.42,7.49h-5.27v7.83h-2.64v-7.83h-5.03v-2.37h12.59c.66.56.26,1.59.36,2.37Z" fill="#929497"/>
  <path d="M42.44,5.11v6.77c0,.32.41,1.01.83,1.07,2.28.33,5.28-.28,7.65.03.69.22.3,1.73.39,2.34h-9.23c-.64,0-2.04-1.38-2.04-2.02V5.11h2.4Z" fill="#929497"/>
  <path d="M36.68,15.32h-2.64V5.47c.54-.56,2.09-.56,2.64,0v9.85Z" fill="#929497"/>
  <rect x="70.97" y="5.11" width="2.4" height="10.21" fill="#929497"/>
  <g>
    <path d="M29.01,4.4c.02.97-.93,1.95-1.92,1.9-1.03-.76-2.04-1.65-3.02-2.66-.74-1.62-4.32,2.43-4.4,2.7-.28,1.04-.16,4.98.24,6.12l-.13.48c.02-.18.07-.44.22-.47.87-.2,5.65-.1,6.75,0l.35.47c-.91-.36-.57-2.79,0-3.56.4-1.38,1.95-2.96,3.36-3.32l.46.8c-.11.3-1.18,1.09-1.18,1.22v7.24h-11.15c-.13,0-.8-.54-.97-.7-1.79-1.7-.72-4.27-1.07-6.3-.11-.64-.85-.92-1.18-1.45L21.46.6c3.21-2.32,5.07,2.73,7.55,3.8Z" fill="#929497"/>
    <path d="M30.45,6.06c-1.09,1.09-2.23,2.28-3.36,3.32-.49,1.8-2.78,2.55-4.43,1.77-.73-.34-2.77-2.06-2.87-2.75-.08-.57,1.81-2.43,2.45-1.77,1.03,2.15,2.47,1.98,4.33-.5l.52.17c.68-.63,1.27-1.27,1.92-1.9.9-.88,1.91-1.69,2.79-2.6l1.53,1.29c-1.03.91-1.91,2-2.87,2.97Z" fill="#39b44a"/>
  </g>
</svg>